<svg xmlns="http://www.w3.org/2000/svg" viewBox="0 0 256.43 256.43"><defs><style>.cls-1{fill:#42091f;}.cls-2{fill:#ea4869;}</style></defs><g id="Layer_2" data-name="Layer 2"><g id="_àð_1" data-name="˜àð_1"><rect class="cls-1" width="256.43" height="256.43" rx="55.72"/><path class="cls-2" d="M90.64,72.48v112.7H64.23V72.48Z"/><path class="cls-2" d="M197.82,65.45v95.19c0,9.81.29,19.73.67,24.54H174.83l-1-12.9h-.32c-5.82,10.3-16.75,14.91-28.22,14.91-19.74,0-37.73-15.69-37.73-42-.18-27.14,18.5-43.84,39.69-43.84,10.93,0,19.73,3.58,23.86,9.58h.33V65.45Zm-26.4,73.72a25.13,25.13,0,0,0-.35-4.57,17,17,0,0,0-16.9-13.4c-12.86,0-19.72,10.07-19.72,22.84,0,13.18,7.57,22.08,19.56,22.08A17.23,17.23,0,0,0,171,152.23a29.47,29.47,0,0,0,.47-6Z"/></g></g></svg>