<svg xmlns="http://www.w3.org/2000/svg" viewBox="0 0 256.43 256.43"><defs><style>.cls-1{fill:#002039;}.cls-2{fill:#38a6f3;}</style></defs><g id="Layer_2" data-name="Layer 2"><g id="_àð_1" data-name="˜àð_1"><rect class="cls-1" width="256.43" height="256.43" rx="55.72"/><path class="cls-2" d="M99.39,73.43H58.12v111H79.17V148.59H99.39A37.58,37.58,0,0,0,137,111h0A37.59,37.59,0,0,0,99.39,73.43Zm0,53.7H79.17V94.9H99.39a16.12,16.12,0,0,1,0,32.23Z"/><path class="cls-2" d="M184.55,131.82c-12.2-4.35-14.17-6.59-14.17-10.29,0-4.39,4.13-7.22,10.51-7.22a32.17,32.17,0,0,1,16,4.21l4.84,2.86,7.15-19.46-3.17-1.76c-6.66-3.69-15.56-5.8-24.43-5.8-20.6,0-35.56,12.16-35.56,28.91,0,8.61,4.65,20.42,26.75,27.79,12.74,4.4,13.75,7.67,13.75,11.48,0,7.47-9,8.27-12.93,8.27a40.54,40.54,0,0,1-19.07-5.39l-4.94-3-7.08,20.14,3.15,1.73c7.3,4,17.35,6.32,27.57,6.32,23.19,0,38.17-11.55,38.17-29.44C211.07,143.53,196.9,136.22,184.55,131.82Z"/></g></g></svg>